<?xml version="1.0" encoding="UTF-8" standalone="no"?>
<svg
   id="image-2"
   fill="none"
   viewBox="4 2 140 140"
   version="1.1"
   sodipodi:docname="multiflexi-microsoft365.svg"
   width="140"
   height="140"
   inkscape:version="1.4 (e7c3feb100, 2024-10-09)"
   xml:space="preserve"
   xmlns:inkscape="http://www.inkscape.org/namespaces/inkscape"
   xmlns:sodipodi="http://sodipodi.sourceforge.net/DTD/sodipodi-0.dtd"
   xmlns="http://www.w3.org/2000/svg"
   xmlns:svg="http://www.w3.org/2000/svg"
   xmlns:rdf="http://www.w3.org/1999/02/22-rdf-syntax-ns#"
   xmlns:cc="http://creativecommons.org/ns#"
   xmlns:dc="http://purl.org/dc/elements/1.1/"><sodipodi:namedview
     id="namedview63"
     pagecolor="#ffffff"
     bordercolor="#666666"
     borderopacity="1.0"
     inkscape:showpageshadow="2"
     inkscape:pageopacity="0.0"
     inkscape:pagecheckerboard="0"
     inkscape:deskcolor="#d1d1d1"
     showgrid="false"
     inkscape:zoom="1.3409091"
     inkscape:cx="-20.881356"
     inkscape:cy="75.694915"
     inkscape:window-width="1920"
     inkscape:window-height="1120"
     inkscape:window-x="0"
     inkscape:window-y="0"
     inkscape:window-maximized="1"
     inkscape:current-layer="image-2" /><title
     id="title2">Microsoft 365 logo (2022)</title><g
     id="g1"
     transform="matrix(3.135682,0,0,3.135682,-1.2563675,-3.2596254)"><path
       d="m 20.0842,3.02588 -0.2247,0.13591 c -0.3574,0.2162 -0.6941,0.45793 -1.0083,0.72206 L 19.4993,3.42798 H 25 L 26,11 l -5,5 -5,3.4754 v 4.0075 c 0,2.799 1.4629,5.3945 3.8574,6.8439 L 25.1211,33.5129 14,40.0002 H 11.8551 L 7.85737,37.5804 C 5.46286,36.131 4,33.5355 4,30.7365 V 17.2606 C 4,14.4607 5.46379,11.8645 7.85952,10.4154 L 19.8595,3.15687 c 0.0744,-0.04498 0.1493,-0.08864 0.2247,-0.13099 z"
       fill="url(#paint0_radial_2994_8373)"
       id="path4"
       style="fill:url(#paint0_radial_2994_8373)" /><path
       d="m 20.0842,3.02588 -0.2247,0.13591 c -0.3574,0.2162 -0.6941,0.45793 -1.0083,0.72206 L 19.4993,3.42798 H 25 L 26,11 l -5,5 -5,3.4754 v 4.0075 c 0,2.799 1.4629,5.3945 3.8574,6.8439 L 25.1211,33.5129 14,40.0002 H 11.8551 L 7.85737,37.5804 C 5.46286,36.131 4,33.5355 4,30.7365 V 17.2606 C 4,14.4607 5.46379,11.8645 7.85952,10.4154 L 19.8595,3.15687 c 0.0744,-0.04498 0.1493,-0.08864 0.2247,-0.13099 z"
       fill="url(#paint1_linear_2994_8373)"
       id="path6"
       style="fill:url(#paint1_linear_2994_8373)" /><path
       d="m 32,19 v 4.4803 c 0,2.799 -1.4629,5.3945 -3.8574,6.8439 l -12,7.2636 c -2.4548,1.4859 -5.5091,1.5395 -8.0071,0.1609 l 11.7218,7.0953 c 2.5466,1.5415 5.7386,1.5415 8.2853,0 l 12,-7.2637 c 2.3945,-1.4494 3.8573,-4.0449 3.8573,-6.8439 V 27.5 l -1,-1.5 z"
       fill="url(#paint2_radial_2994_8373)"
       id="path8"
       style="fill:url(#paint2_radial_2994_8373)" /><path
       d="m 32,19 v 4.4803 c 0,2.799 -1.4629,5.3945 -3.8574,6.8439 l -12,7.2636 c -2.4548,1.4859 -5.5091,1.5395 -8.0071,0.1609 l 11.7218,7.0953 c 2.5466,1.5415 5.7386,1.5415 8.2853,0 l 12,-7.2637 c 2.3945,-1.4494 3.8573,-4.0449 3.8573,-6.8439 V 27.5 l -1,-1.5 z"
       fill="url(#paint3_linear_2994_8373)"
       id="path10"
       style="fill:url(#paint3_linear_2994_8373)" /><path
       d="m 40.1405,10.4153 -12,-7.25852 C 25.6738,1.66471 22.6021,1.61849 20.0979,3.01811 l -0.2384,0.1442 C 17.4638,4.61143 16,7.20757 16,10.0075 v 9.4839 l 3.8595,-2.3346 c 2.5456,-1.5397 5.7354,-1.5397 8.281,0 l 12,7.2585 c 2.3208,1.4039 3.7671,3.8841 3.8552,6.5832 C 43.9986,30.9113 44,30.824 44,30.7364 V 17.2605 c 0,-2.7999 -1.4638,-5.3961 -3.8595,-6.8452 z"
       fill="url(#paint4_radial_2994_8373)"
       id="path12"
       style="fill:url(#paint4_radial_2994_8373)" /><path
       d="m 40.1405,10.4153 -12,-7.25852 C 25.6738,1.66471 22.6021,1.61849 20.0979,3.01811 l -0.2384,0.1442 C 17.4638,4.61143 16,7.20757 16,10.0075 v 9.4839 l 3.8595,-2.3346 c 2.5456,-1.5397 5.7354,-1.5397 8.281,0 l 12,7.2585 c 2.3208,1.4039 3.7671,3.8841 3.8552,6.5832 C 43.9986,30.9113 44,30.824 44,30.7364 V 17.2605 c 0,-2.7999 -1.4638,-5.3961 -3.8595,-6.8452 z"
       fill="url(#paint5_linear_2994_8373)"
       id="path14"
       style="fill:url(#paint5_linear_2994_8373)" /><path
       d="M 4.00428,30.9984 Z"
       fill="url(#paint6_radial_2994_8373)"
       id="path16"
       style="fill:url(#paint6_radial_2994_8373)" /><path
       d="M 4.00428,30.9984 Z"
       fill="url(#paint7_linear_2994_8373)"
       id="path18"
       style="fill:url(#paint7_linear_2994_8373)" /></g><defs
     id="defs60"><radialGradient
       id="paint0_radial_2994_8373"
       cx="0"
       cy="0"
       r="1"
       gradientUnits="userSpaceOnUse"
       gradientTransform="matrix(-11.700186,31.247009,-54.50117,-20.407516,17.4186,10.6383)"><stop
         offset="0.06441"
         stop-color="#AE7FE2"
         id="stop20" /><stop
         offset="1"
         stop-color="#0078D4"
         id="stop22" /></radialGradient><linearGradient
       id="paint1_linear_2994_8373"
       x1="17.5119"
       y1="37.8685"
       x2="12.7513"
       y2="29.634701"
       gradientUnits="userSpaceOnUse"><stop
         offset="0"
         stop-color="#114A8B"
         id="stop25" /><stop
         offset="1"
         stop-color="#0078D4"
         stop-opacity="0"
         id="stop27" /></linearGradient><radialGradient
       id="paint2_radial_2994_8373"
       cx="0"
       cy="0"
       r="1"
       gradientUnits="userSpaceOnUse"
       gradientTransform="matrix(30.719797,-4.5183204,2.9846529,20.29248,10.4299,36.3511)"><stop
         offset="0.133928"
         stop-color="#D59DFF"
         id="stop30" /><stop
         offset="1"
         stop-color="#5E438F"
         id="stop32" /></radialGradient><linearGradient
       id="paint3_linear_2994_8373"
       x1="40.356602"
       y1="25.376801"
       x2="35.255199"
       y2="32.691601"
       gradientUnits="userSpaceOnUse"><stop
         offset="0"
         stop-color="#493474"
         id="stop35" /><stop
         offset="1"
         stop-color="#8C66BA"
         stop-opacity="0"
         id="stop37" /></linearGradient><radialGradient
       id="paint4_radial_2994_8373"
       cx="0"
       cy="0"
       r="1"
       gradientUnits="userSpaceOnUse"
       gradientTransform="matrix(-24.158302,-6.1255536,10.311796,-40.668239,41.0552,26.504)"><stop
         offset="0.0584996"
         stop-color="#50E6FF"
         id="stop40" /><stop
         offset="1"
         stop-color="#436DCD"
         id="stop42" /></radialGradient><linearGradient
       id="paint5_linear_2994_8373"
       x1="16.9758"
       y1="3.05655"
       x2="24.486799"
       y2="3.05655"
       gradientUnits="userSpaceOnUse"><stop
         offset="0"
         stop-color="#2D3F80"
         id="stop45" /><stop
         offset="1"
         stop-color="#436DCD"
         stop-opacity="0"
         id="stop47" /></linearGradient><radialGradient
       id="paint6_radial_2994_8373"
       cx="0"
       cy="0"
       r="1"
       gradientUnits="userSpaceOnUse"
       gradientTransform="matrix(-24.158302,-6.1255536,10.311796,-40.668239,41.0552,26.504)"><stop
         offset="0.0584996"
         stop-color="#50E6FF"
         id="stop50" /><stop
         offset="1"
         stop-color="#436DCD"
         id="stop52" /></radialGradient><linearGradient
       id="paint7_linear_2994_8373"
       x1="16.9758"
       y1="3.05655"
       x2="24.486799"
       y2="3.05655"
       gradientUnits="userSpaceOnUse"><stop
         offset="0"
         stop-color="#2D3F80"
         id="stop55" /><stop
         offset="1"
         stop-color="#436DCD"
         stop-opacity="0"
         id="stop57" /></linearGradient><clipPath
       id="clipPath3444"><path
         id="path3446"
         d="M 11.52,162 C 11.52,81.677 135.307,16.56 288,16.56 440.693,16.56 564.48,81.678 564.48,162 564.48,242.322 440.693,307.44 288,307.44 135.307,307.44 11.52,242.32 11.52,162"
         inkscape:connector-curvature="0" /></clipPath><radialGradient
       id="radialGradient3452"
       cx="0"
       cy="0"
       r="1"
       fx="0"
       fy="0"
       gradientTransform="matrix(363.06,0,0,-363.06,177.52,256.31)"
       gradientUnits="userSpaceOnUse"
       spreadMethod="pad"><stop
         id="stop3454"
         offset="0"
         stop-color="#aeb2d5" /><stop
         id="stop3456"
         offset="0.3"
         stop-color="#aeb2d5" /><stop
         id="stop3458"
         offset="0.75"
         stop-color="#484c89" /><stop
         id="stop3460"
         offset="1"
         stop-color="#484c89" /></radialGradient><clipPath
       id="clipPath3468"><path
         id="path3470"
         d="M 0,324 H 576 V 0 H 0 Z"
         inkscape:connector-curvature="0" /></clipPath><clipPath
       id="clipPath3480"><path
         id="path3482"
         d="M 0,324 H 576 V 0 H 0 Z"
         inkscape:connector-curvature="0" /></clipPath><filter
       style="color-interpolation-filters:sRGB"
       inkscape:label="Drop Shadow"
       id="filter4622"
       x="-0.1215186"
       y="-0.21051334"
       width="1.29367"
       height="1.5087406"><feFlood
         flood-opacity="0.498039"
         flood-color="rgb(0,0,0)"
         result="flood"
         id="feFlood4612" /><feComposite
         in="flood"
         in2="SourceGraphic"
         operator="in"
         result="composite1"
         id="feComposite4614" /><feGaussianBlur
         in="composite1"
         stdDeviation="6"
         result="blur"
         id="feGaussianBlur4616" /><feOffset
         dx="6"
         dy="6"
         result="offset"
         id="feOffset4618" /><feComposite
         in="SourceGraphic"
         in2="offset"
         operator="over"
         result="fbSourceGraphic"
         id="feComposite4620" /><feColorMatrix
         result="fbSourceGraphicAlpha"
         in="fbSourceGraphic"
         values="0 0 0 -1 0 0 0 0 -1 0 0 0 0 -1 0 0 0 0 1 0"
         id="feColorMatrix4624" /><feFlood
         id="feFlood4626"
         flood-opacity="0.498039"
         flood-color="rgb(0,0,0)"
         result="flood"
         in="fbSourceGraphic" /><feComposite
         in2="fbSourceGraphic"
         id="feComposite4628"
         in="flood"
         operator="in"
         result="composite1" /><feGaussianBlur
         id="feGaussianBlur4630"
         in="composite1"
         stdDeviation="6"
         result="blur" /><feOffset
         id="feOffset4632"
         dx="6"
         dy="6"
         result="offset" /><feComposite
         in2="offset"
         id="feComposite4634"
         in="fbSourceGraphic"
         operator="over"
         result="fbSourceGraphic" /><feColorMatrix
         result="fbSourceGraphicAlpha"
         in="fbSourceGraphic"
         values="0 0 0 -1 0 0 0 0 -1 0 0 0 0 -1 0 0 0 0 1 0"
         id="feColorMatrix4636" /><feFlood
         id="feFlood4638"
         flood-opacity="0.498039"
         flood-color="rgb(0,0,0)"
         result="flood"
         in="fbSourceGraphic" /><feComposite
         in2="fbSourceGraphic"
         id="feComposite4640"
         in="flood"
         operator="in"
         result="composite1" /><feGaussianBlur
         id="feGaussianBlur4642"
         in="composite1"
         stdDeviation="6"
         result="blur" /><feOffset
         id="feOffset4644"
         dx="6"
         dy="6"
         result="offset" /><feComposite
         in2="offset"
         id="feComposite4646"
         in="fbSourceGraphic"
         operator="over"
         result="composite2" /></filter><filter
       style="color-interpolation-filters:sRGB"
       inkscape:label="Color Shift"
       id="filter3861"><feColorMatrix
         type="hueRotate"
         values="112"
         result="color1"
         id="feColorMatrix3857" /><feColorMatrix
         type="saturate"
         values="0.6"
         result="fbSourceGraphic"
         id="feColorMatrix3859" /><feColorMatrix
         result="fbSourceGraphicAlpha"
         in="fbSourceGraphic"
         values="0 0 0 -1 0 0 0 0 -1 0 0 0 0 -1 0 0 0 0 1 0"
         id="feColorMatrix3863" /><feColorMatrix
         id="feColorMatrix3865"
         type="hueRotate"
         values="112"
         result="color1"
         in="fbSourceGraphic" /><feColorMatrix
         id="feColorMatrix3867"
         type="saturate"
         values="0.6"
         result="color2" /></filter><filter
       style="color-interpolation-filters:sRGB"
       inkscape:label="Color Shift"
       id="filter3873"><feColorMatrix
         type="hueRotate"
         values="112"
         result="color1"
         id="feColorMatrix3869" /><feColorMatrix
         type="saturate"
         values="0.6"
         result="fbSourceGraphic"
         id="feColorMatrix3871" /><feColorMatrix
         result="fbSourceGraphicAlpha"
         in="fbSourceGraphic"
         values="0 0 0 -1 0 0 0 0 -1 0 0 0 0 -1 0 0 0 0 1 0"
         id="feColorMatrix3911" /><feColorMatrix
         id="feColorMatrix3913"
         type="hueRotate"
         values="323"
         result="color1"
         in="fbSourceGraphic" /><feColorMatrix
         id="feColorMatrix3915"
         type="saturate"
         values="0.61"
         result="color2" /></filter><filter
       style="color-interpolation-filters:sRGB"
       inkscape:label="Color Shift"
       id="filter4017"
       x="-0.1215186"
       y="-0.21051334"
       width="1.2936701"
       height="1.5087405"><feColorMatrix
         type="hueRotate"
         values="327"
         result="color1"
         id="feColorMatrix4013" /><feColorMatrix
         type="saturate"
         values="1"
         result="color2"
         id="feColorMatrix4015" /></filter><filter
       style="color-interpolation-filters:sRGB"
       inkscape:label="Color Shift"
       id="filter4135"
       x="0"
       y="0"
       width="1"
       height="1"><feColorMatrix
         type="hueRotate"
         values="229"
         result="color1"
         id="feColorMatrix4131" /><feColorMatrix
         type="saturate"
         values="0.79"
         result="color2"
         id="feColorMatrix4133" /></filter><linearGradient
       x1="0"
       y1="0"
       x2="1"
       y2="0"
       gradientUnits="userSpaceOnUse"
       gradientTransform="matrix(-4.02e-6,-91.8907,-91.8907,4.02e-6,85.8809,161.434)"
       spreadMethod="pad"
       id="linearGradient3027"><stop
         style="stop-opacity:1;stop-color:#97d9f6"
         offset="0"
         id="stop3029" /><stop
         style="stop-opacity:1;stop-color:#0f80cc"
         offset="0.920245"
         id="stop3031" /><stop
         style="stop-opacity:1;stop-color:#0f80cc"
         offset="1"
         id="stop3033" /></linearGradient><filter
       style="color-interpolation-filters:sRGB;"
       inkscape:label="Drop Shadow"
       id="filter1553"><feFlood
         flood-opacity="0.498039"
         flood-color="rgb(0,0,0)"
         result="flood"
         id="feFlood1543" /><feComposite
         in="flood"
         in2="SourceGraphic"
         operator="in"
         result="composite1"
         id="feComposite1545" /><feGaussianBlur
         in="composite1"
         stdDeviation="3"
         result="blur"
         id="feGaussianBlur1547" /><feOffset
         dx="6"
         dy="6"
         result="offset"
         id="feOffset1549" /><feComposite
         in="SourceGraphic"
         in2="offset"
         operator="over"
         result="composite2"
         id="feComposite1551" /></filter><filter
       inkscape:label="Black Hole"
       inkscape:menu="Morphology"
       inkscape:menu-tooltip="Creates a black light inside and outside"
       height="1.0441137"
       width="1.0594339"
       y="-0.022056837"
       x="-0.029716946"
       style="color-interpolation-filters:sRGB"
       id="filter776"><feGaussianBlur
         stdDeviation="5"
         in="SourceAlpha"
         result="result1"
         id="feGaussianBlur764" /><feComposite
         operator="arithmetic"
         k2="3.2"
         k1="-1"
         k4="-2"
         result="result3"
         in2="result1"
         id="feComposite766"
         k3="0" /><feColorMatrix
         values="1 0 0 0 0 0 1 0 0 0 0 0 1 0 0 0 0 0 10 0 "
         result="result2"
         id="feColorMatrix768" /><feComposite
         result="fbSourceGraphic"
         in="SourceGraphic"
         operator="out"
         in2="result2"
         id="feComposite770" /><feBlend
         mode="multiply"
         in="result1"
         in2="fbSourceGraphic"
         result="result91"
         id="feBlend772" /><feBlend
         mode="screen"
         in="fbSourceGraphic"
         in2="result91"
         id="feBlend774" /></filter></defs><metadata
     id="metadata1468"><rdf:RDF><cc:Work
         rdf:about=""><dc:title>Microsoft 365 logo (2022)</dc:title></cc:Work></rdf:RDF></metadata><text
     xml:space="preserve"
     style="font-style:normal;font-weight:normal;font-size:47.2437px;line-height:1.25;font-family:sans-serif;fill:#000000;fill-opacity:1;stroke:none;stroke-width:1.18109"
     x="10.71711"
     y="135.37138"
     id="text2354"><tspan
       sodipodi:role="line"
       id="tspan2352"
       x="10.71711"
       y="135.37138"
       style="stroke-width:1.18109">m365</tspan></text><g
     id="g249"
     transform="matrix(0.20608462,0,0,0.20608462,-81.357923,-42.283924)"
     style="fill:#ffd42a;fill-opacity:1;filter:url(#filter776)"><path
       id="path5740"
       style="color:#000000;text-indent:0;text-transform:none;fill:#ffd42a;fill-opacity:1;fill-rule:evenodd"
       inkscape:connector-curvature="0"
       d="m 713.47,204.89 v 74.226 c -91.83,18.86 -161.52,100.63 -161.52,197.79 0,96.668 69.012,178.12 160.15,197.51 L 645.092,607.408 686.15,566.35 c -26.951,-20.333 -44.214,-52.667 -44.214,-89.444 0,-48.051 29.471,-88.501 71.524,-104.52 v 115.53 L 854.98,346.396 713.47,204.886 Z" /><path
       id="path2985"
       style="color:#000000;text-indent:0;text-transform:none;fill:#ffd42a;fill-opacity:1;fill-rule:evenodd"
       inkscape:connector-curvature="0"
       d="m 795.61,279.41 67.008,66.993 -41.074,41.074 c 26.961,20.328 44.23,52.647 44.23,89.428 0,48.051 -29.47,88.512 -71.524,104.54 v -115.55 l -141.52,141.52 141.52,141.52 v -74.226 c 91.812,-18.87 161.51,-100.65 161.51,-197.79 0,-96.667 -69.01,-178.1 -160.15,-197.49 z" /></g></svg>
